<?xml version="1.0" encoding="UTF-8" standalone="no"?><!DOCTYPE svg PUBLIC "-//W3C//DTD SVG 1.1//EN" "http://www.w3.org/Graphics/SVG/1.1/DTD/svg11.dtd"><svg width="100%" height="100%" viewBox="0 0 135 61" version="1.1" xmlns="http://www.w3.org/2000/svg" xmlns:xlink="http://www.w3.org/1999/xlink" xml:space="preserve" xmlns:serif="http://www.serif.com/" style="fill-rule:evenodd;clip-rule:evenodd;stroke-linejoin:round;stroke-miterlimit:2;"><rect id="Mesa-de-trabajo1" serif:id="Mesa de trabajo1" x="0" y="0" width="134.977" height="60.218" style="fill:none;"/><g><g><path d="M35.71,39.908c-1.237,0 -1.856,1.378 -1.856,4.134l0,3.375c0,0.731 0.028,1.392 0.085,1.982c0.056,0.591 0.084,1.055 0.084,1.392c0,1.153 -0.506,1.73 -1.519,1.73c-0.984,0 -1.476,-0.492 -1.476,-1.477c0,0 0.028,-0.337 0.084,-1.012c0.028,-0.253 0.056,-0.689 0.085,-1.308c-0.647,0.872 -1.153,1.477 -1.519,1.814c-1.631,1.463 -3.895,2.194 -6.792,2.194c-3.628,0 -6.552,-1.35 -8.774,-4.05c-2.222,-2.7 -3.333,-6.229 -3.333,-10.588c0,-4.668 1.132,-8.395 3.396,-11.179c2.264,-2.784 5.308,-4.176 9.133,-4.176c2.812,0 5.358,1.054 7.636,3.164c-0.057,-0.394 -0.085,-0.619 -0.085,-0.675c-0.056,-0.563 -0.084,-0.872 -0.084,-0.928c0,-0.928 0.464,-1.392 1.392,-1.392c1.012,0 1.518,0.604 1.518,1.813c0,0.394 -0.014,0.689 -0.042,0.886l-0.295,2.025c-0.084,0.591 -0.127,1.224 -0.127,1.898c0,0.535 0.057,1.674 0.169,3.417l0,0.38c0,1.266 -0.52,1.898 -1.561,1.898c-0.984,0 -1.476,-0.689 -1.476,-2.067l0,-1.265c0,-1.941 -0.64,-3.473 -1.919,-4.598c-1.28,-1.125 -3.003,-1.688 -5.168,-1.688c-2.728,0 -4.865,1.055 -6.412,3.164c-1.547,2.109 -2.32,5.006 -2.32,8.69c0,3.909 0.794,6.961 2.383,9.154c1.589,2.194 3.79,3.29 6.602,3.29c2.166,0 3.839,-0.632 5.02,-1.898c1.181,-1.265 1.772,-3.065 1.772,-5.399c0,-0.957 -0.162,-1.624 -0.485,-2.004c-0.324,-0.38 -0.893,-0.57 -1.709,-0.57c-0.225,0 -0.548,0.014 -0.97,0.043c-0.422,0.028 -0.745,0.042 -0.97,0.042c-1.35,0 -2.025,-0.478 -2.025,-1.435c0,-0.984 0.576,-1.476 1.729,-1.476c0.366,0 0.774,0.028 1.224,0.084c1.771,0.225 3.192,0.338 4.26,0.338c1.378,0 2.841,-0.127 4.388,-0.38c0.337,-0.056 0.717,-0.084 1.138,-0.084c1.125,0 1.688,0.464 1.688,1.392c0,0.394 -0.148,0.731 -0.443,1.012c-0.295,0.282 -0.64,0.422 -1.034,0.422c-0.337,0 -0.59,-0.014 -0.759,-0.042c-0.056,0 -0.155,-0.014 -0.295,-0.042l-0.338,0Zm14.765,12.613c-2.953,0 -5.315,-1.02 -7.087,-3.058c-1.772,-2.039 -2.658,-4.774 -2.658,-8.205c0,-3.431 0.893,-6.166 2.679,-8.205c1.786,-2.039 4.183,-3.058 7.192,-3.058c3.066,0 5.484,0.998 7.256,2.995c1.772,1.996 2.658,4.71 2.658,8.141c0,3.431 -0.914,6.187 -2.742,8.268c-1.828,2.081 -4.261,3.122 -7.298,3.122Zm55.219,-19.025l-0.506,0c-0.984,0 -1.477,-0.436 -1.477,-1.308c0,-0.984 0.549,-1.476 1.646,-1.476c0.253,0 0.639,0.028 1.16,0.084c0.52,0.056 0.907,0.084 1.16,0.084c0.225,0 0.562,-0.021 1.012,-0.063c0.45,-0.042 0.788,-0.063 1.013,-0.063c0.843,0 1.265,0.45 1.265,1.35c0,0.393 -0.028,0.703 -0.084,0.928c-0.141,1.068 -0.211,2.643 -0.211,4.724l0,6.497c0,1.715 0.014,2.671 0.042,2.868c0.141,1.491 0.534,2.236 1.181,2.236c0.197,0 0.478,-0.035 0.844,-0.105c0.365,-0.071 0.647,-0.106 0.843,-0.106c0.957,0 1.435,0.464 1.435,1.392c0,0.956 -0.591,1.435 -1.772,1.435c-0.253,0 -0.619,-0.029 -1.097,-0.085c-0.703,-0.084 -1.139,-0.126 -1.307,-0.126c-0.085,0 -0.38,0.028 -0.886,0.084c-0.338,0.084 -0.633,0.127 -0.886,0.127c-0.788,0 -1.181,-0.408 -1.181,-1.224l0,-1.308c-1.491,2.053 -3.699,3.08 -6.623,3.08c-3.319,0 -5.625,-1.027 -6.919,-3.08c-0.562,-0.899 -0.871,-1.954 -0.928,-3.163c-0.028,-0.591 -0.042,-1.828 -0.042,-3.713l0,-3.501c0,-3.853 -0.408,-5.779 -1.223,-5.779c-0.169,0 -0.436,0.035 -0.802,0.105c-0.365,0.071 -0.646,0.106 -0.843,0.106c-0.985,0 -1.477,-0.464 -1.477,-1.392c0,-0.9 0.605,-1.35 1.814,-1.35c0.281,0 0.696,0.028 1.245,0.084c0.548,0.056 0.963,0.085 1.244,0.085c0.253,0 0.689,-0.043 1.308,-0.127c0.422,-0.056 0.661,-0.084 0.717,-0.084c0.872,0 1.308,0.534 1.308,1.603l0,0.886l-0.043,2.741l-0.126,3.122l0,2.742c0,2.447 0.197,4.204 0.59,5.273c0.647,1.772 2.194,2.658 4.641,2.658c1.209,0 2.278,-0.274 3.206,-0.823c0.928,-0.548 1.575,-1.272 1.94,-2.172c0.45,-1.097 0.675,-3.178 0.675,-6.244l0,-5.062c-0.14,-1.35 -0.506,-2.025 -1.097,-2.025c-0.309,0 -0.562,0.029 -0.759,0.085Zm-35.266,-8.859l-0.169,8.184c1.125,-1.069 2.152,-1.807 3.08,-2.215c0.928,-0.408 2.025,-0.611 3.29,-0.611c2.419,0 4.359,0.689 5.821,2.067c1.463,1.378 2.194,3.191 2.194,5.441l0,7.045c0,1.659 0.014,2.573 0.042,2.742c0.113,1.406 0.478,2.109 1.097,2.109c0.225,0 0.548,-0.056 0.97,-0.168c0.169,-0.029 0.394,-0.043 0.675,-0.043c1.041,0 1.561,0.464 1.561,1.392c0,0.928 -0.675,1.393 -2.025,1.393c-0.365,0 -0.9,-0.043 -1.603,-0.127c-1.181,-0.141 -2.137,-0.211 -2.868,-0.211c-0.732,0 -1.294,0.028 -1.688,0.084c-1.181,0.169 -1.912,0.254 -2.193,0.254c-0.506,0 -0.928,-0.148 -1.266,-0.443c-0.337,-0.296 -0.506,-0.668 -0.506,-1.118c0,-0.366 0.148,-0.675 0.443,-0.928c0.295,-0.253 0.64,-0.38 1.033,-0.38c0.31,0 0.675,0.07 1.097,0.211c0.253,0.084 0.492,0.126 0.717,0.126c0.844,0 1.28,-0.914 1.308,-2.742c0,-0.337 0.014,-0.998 0.042,-1.982l0.042,-1.814l0,-2.278c0,-2.869 -0.281,-4.795 -0.843,-5.779c-0.816,-1.463 -2.25,-2.194 -4.303,-2.194c-2.222,0 -3.839,0.759 -4.851,2.278c-0.703,1.041 -1.069,2.714 -1.097,5.02l-0.042,3.037c0,0.169 -0.014,0.45 -0.042,0.844l0,0.801c0,1.603 0.014,2.532 0.042,2.785c0.14,1.378 0.548,2.067 1.223,2.067c0.225,0 0.542,-0.05 0.949,-0.148c0.408,-0.098 0.71,-0.148 0.907,-0.148c0.9,0 1.35,0.436 1.35,1.308c0,0.984 -0.619,1.477 -1.856,1.477c-0.394,0 -0.984,-0.043 -1.772,-0.127c-1.068,-0.113 -1.982,-0.169 -2.742,-0.169c-0.478,0 -1.139,0.042 -1.982,0.127c-1.125,0.112 -1.842,0.169 -2.152,0.169c-1.153,0 -1.729,-0.507 -1.729,-1.519c0,-0.844 0.534,-1.266 1.603,-1.266c0.365,0 0.632,0.028 0.801,0.085c0.478,0.084 0.816,0.126 1.013,0.126c0.45,0 0.752,-0.429 0.907,-1.286c0.154,-0.858 0.246,-2.609 0.274,-5.252l0.042,-7.551c0,-4.219 -0.084,-6.883 -0.253,-7.994c-0.169,-1.111 -0.563,-1.666 -1.181,-1.666c-0.197,0 -0.492,0.042 -0.886,0.126c-0.394,0.084 -0.703,0.127 -0.928,0.127c-0.956,0 -1.434,-0.45 -1.434,-1.35c0,-0.394 0.168,-0.731 0.506,-1.013c0.337,-0.281 0.745,-0.422 1.223,-0.422c0.141,0 0.619,0.043 1.434,0.127c0.535,0.056 1.111,0.084 1.73,0.084c0.253,0 0.605,-0.028 1.055,-0.084c0.449,-0.056 0.773,-0.084 0.97,-0.084c0.647,0 0.97,0.464 0.97,1.392l0,0.084Zm-19.742,8.142c-1.969,0 -3.516,0.689 -4.641,2.067c-1.124,1.378 -1.743,3.332 -1.856,5.863l0,0.549c0,2.643 0.556,4.717 1.667,6.222c1.11,1.504 2.664,2.257 4.661,2.257c2.053,0 3.663,-0.753 4.83,-2.257c1.167,-1.505 1.751,-3.593 1.751,-6.264c0,-5.625 -2.138,-8.437 -6.412,-8.437Zm47.216,-4.316l1.46,0c6.339,-3.674 12.147,-7.068 12.141,-7.166c0.021,-0.079 0.018,-0.168 -0.016,-0.269l-10.664,-18.487c-0.124,-0.141 -0.281,-0.203 -0.491,-0.132l-27.985,16.173c-0.035,0.031 -0.071,0.062 -0.106,0.093c-0.062,0.125 -0.062,0.127 -0.071,0.266l0.045,0.133l5.416,9.389l0.831,0l-5.143,-8.915l13.802,3.339l-1.641,5.576l0.75,0l1.591,-5.407l6.257,1.514c0.182,0.009 0.333,-0.061 0.43,-0.248l1.819,-6.182l13.701,3.315l-12.126,7.008Zm-24.527,-9.643l26.51,-15.321l-5.971,20.29l-20.539,-4.969Zm37.171,2.019l-14.015,-3.391l4.074,-13.845l9.941,17.236Z" style="fill-rule:nonzero;"/><g><path d="M46.694,56.374c-0.047,-0.206 -0.134,-0.352 -0.262,-0.439c-0.127,-0.088 -0.293,-0.131 -0.499,-0.131c-0.145,0 -0.27,0.029 -0.375,0.087c-0.105,0.058 -0.191,0.137 -0.259,0.235c-0.068,0.098 -0.118,0.212 -0.151,0.341c-0.032,0.128 -0.048,0.264 -0.048,0.407c0,0.135 0.014,0.267 0.041,0.396c0.028,0.13 0.075,0.246 0.139,0.348c0.065,0.102 0.152,0.184 0.262,0.246c0.109,0.063 0.246,0.094 0.412,0.094c0.102,0 0.196,-0.016 0.281,-0.05c0.085,-0.033 0.159,-0.08 0.222,-0.139c0.064,-0.059 0.118,-0.129 0.161,-0.21c0.044,-0.08 0.077,-0.169 0.099,-0.265l0.238,0c-0.027,0.116 -0.066,0.226 -0.117,0.331c-0.052,0.104 -0.119,0.195 -0.203,0.273c-0.084,0.078 -0.185,0.14 -0.305,0.186c-0.119,0.046 -0.259,0.069 -0.42,0.069c-0.185,0 -0.344,-0.034 -0.476,-0.102c-0.131,-0.068 -0.239,-0.161 -0.323,-0.277c-0.083,-0.116 -0.144,-0.251 -0.182,-0.405c-0.038,-0.153 -0.057,-0.316 -0.057,-0.488c0,-0.23 0.028,-0.426 0.085,-0.587c0.057,-0.161 0.136,-0.293 0.236,-0.395c0.101,-0.101 0.219,-0.175 0.355,-0.221c0.137,-0.046 0.285,-0.069 0.446,-0.069c0.122,0 0.237,0.016 0.343,0.049c0.106,0.032 0.2,0.081 0.281,0.146c0.082,0.065 0.149,0.145 0.201,0.24c0.053,0.095 0.089,0.205 0.109,0.33l-0.234,0Z" style="fill-rule:nonzero;"/><path d="M47.4,58.089l0,-2.416l1.604,0l0,0.195l-1.376,0l0,0.872l1.242,0l0,0.195l-1.242,0l0,0.96l1.41,0l0,0.194l-1.638,0Z" style="fill-rule:nonzero;"/><path d="M49.674,55.982l-0.007,0l0,2.107l-0.228,0l0,-2.416l0.258,0l1.393,2.111l0.007,0l0,-2.111l0.228,0l0,2.416l-0.265,0l-1.386,-2.107Z" style="fill-rule:nonzero;"/><path d="M51.646,55.673l1.755,0l0,0.195l-0.764,0l0,2.221l-0.227,0l0,-2.221l-0.764,0l0,-0.195Z" style="fill-rule:nonzero;"/><path d="M54.66,56.797c0.085,0 0.163,-0.009 0.236,-0.027c0.072,-0.018 0.135,-0.046 0.189,-0.085c0.054,-0.039 0.096,-0.089 0.127,-0.15c0.032,-0.06 0.047,-0.133 0.047,-0.218c0,-0.089 -0.016,-0.163 -0.048,-0.221c-0.033,-0.058 -0.076,-0.104 -0.131,-0.138c-0.055,-0.033 -0.117,-0.057 -0.188,-0.07c-0.07,-0.014 -0.143,-0.02 -0.219,-0.02l-0.723,0l0,0.929l0.71,0Zm-0.71,0.195l0,1.097l-0.228,0l0,-2.416l0.944,0c0.266,0 0.469,0.05 0.61,0.149c0.141,0.1 0.211,0.261 0.211,0.485c0,0.152 -0.031,0.273 -0.092,0.363c-0.062,0.089 -0.162,0.165 -0.3,0.228c0.071,0.025 0.127,0.06 0.167,0.107c0.041,0.047 0.071,0.101 0.091,0.161c0.02,0.061 0.033,0.125 0.038,0.192c0.006,0.067 0.01,0.132 0.012,0.194c0.002,0.092 0.006,0.168 0.012,0.229c0.005,0.06 0.012,0.109 0.02,0.147c0.008,0.038 0.017,0.068 0.028,0.089c0.012,0.021 0.025,0.038 0.041,0.049l0,0.023l-0.252,0c-0.024,-0.04 -0.041,-0.096 -0.051,-0.167c-0.011,-0.072 -0.018,-0.147 -0.024,-0.225c-0.005,-0.079 -0.01,-0.155 -0.013,-0.229c-0.004,-0.073 -0.01,-0.134 -0.019,-0.181c-0.013,-0.065 -0.035,-0.117 -0.065,-0.156c-0.03,-0.039 -0.066,-0.069 -0.109,-0.089c-0.042,-0.02 -0.09,-0.033 -0.142,-0.04c-0.053,-0.007 -0.107,-0.01 -0.163,-0.01l-0.716,0Z" style="fill-rule:nonzero;"/><path d="M55.738,58.089l0.948,-2.416l0.257,0l0.925,2.416l-0.235,0l-0.278,-0.758l-1.098,0l-0.285,0.758l-0.234,0Zm0.596,-0.953l0.944,0l-0.472,-1.268l-0.472,1.268Z" style="fill-rule:nonzero;"/><path d="M58.192,58.089l0,-2.416l0.228,0l0,2.222l1.293,0l0,0.194l-1.521,0Z" style="fill-rule:nonzero;"/><rect x="60.135" y="55.673" width="0.228" height="2.416" style="fill-rule:nonzero;"/><path d="M60.818,58.089l0,-0.191l1.543,-2.03l-1.413,0l0,-0.195l1.695,0l0,0.191l-1.544,2.031l1.554,0l0,0.194l-1.835,0Z" style="fill-rule:nonzero;"/><path d="M62.81,58.089l0.948,-2.416l0.258,0l0.924,2.416l-0.235,0l-0.278,-0.758l-1.098,0l-0.284,0.758l-0.235,0Zm0.596,-0.953l0.944,0l-0.472,-1.268l-0.472,1.268Z" style="fill-rule:nonzero;"/><path d="M66.976,56.374c-0.047,-0.206 -0.134,-0.352 -0.261,-0.439c-0.128,-0.088 -0.294,-0.131 -0.499,-0.131c-0.146,0 -0.271,0.029 -0.375,0.087c-0.105,0.058 -0.192,0.137 -0.26,0.235c-0.068,0.098 -0.118,0.212 -0.151,0.341c-0.032,0.128 -0.048,0.264 -0.048,0.407c0,0.135 0.014,0.267 0.042,0.396c0.028,0.13 0.074,0.246 0.139,0.348c0.064,0.102 0.151,0.184 0.261,0.246c0.109,0.063 0.246,0.094 0.412,0.094c0.102,0 0.196,-0.016 0.281,-0.05c0.085,-0.033 0.159,-0.08 0.223,-0.139c0.063,-0.059 0.117,-0.129 0.16,-0.21c0.044,-0.08 0.077,-0.169 0.099,-0.265l0.238,0c-0.027,0.116 -0.066,0.226 -0.117,0.331c-0.052,0.104 -0.119,0.195 -0.203,0.273c-0.084,0.078 -0.185,0.14 -0.305,0.186c-0.119,0.046 -0.259,0.069 -0.42,0.069c-0.185,0 -0.344,-0.034 -0.475,-0.102c-0.132,-0.068 -0.24,-0.161 -0.323,-0.277c-0.084,-0.116 -0.145,-0.251 -0.183,-0.405c-0.038,-0.153 -0.057,-0.316 -0.057,-0.488c0,-0.23 0.029,-0.426 0.085,-0.587c0.057,-0.161 0.136,-0.293 0.237,-0.395c0.1,-0.101 0.218,-0.175 0.354,-0.221c0.137,-0.046 0.285,-0.069 0.446,-0.069c0.123,0 0.237,0.016 0.343,0.049c0.106,0.032 0.2,0.081 0.281,0.146c0.082,0.065 0.149,0.145 0.201,0.24c0.053,0.095 0.089,0.205 0.109,0.33l-0.234,0Z" style="fill-rule:nonzero;"/><rect x="67.763" y="55.673" width="0.228" height="2.416" style="fill-rule:nonzero;"/><path d="M68.519,56.884c0,-0.176 0.024,-0.342 0.072,-0.496c0.048,-0.155 0.119,-0.289 0.213,-0.405c0.094,-0.115 0.21,-0.206 0.348,-0.273c0.139,-0.067 0.298,-0.101 0.479,-0.101c0.188,0 0.352,0.033 0.494,0.099c0.142,0.066 0.26,0.157 0.355,0.272c0.095,0.115 0.166,0.251 0.214,0.406c0.048,0.156 0.072,0.322 0.072,0.498c0,0.175 -0.024,0.339 -0.072,0.492c-0.048,0.153 -0.119,0.288 -0.212,0.403c-0.094,0.115 -0.211,0.206 -0.352,0.273c-0.141,0.068 -0.304,0.101 -0.489,0.101c-0.185,0 -0.348,-0.033 -0.489,-0.101c-0.14,-0.067 -0.258,-0.158 -0.351,-0.273c-0.094,-0.115 -0.164,-0.25 -0.211,-0.403c-0.047,-0.153 -0.071,-0.317 -0.071,-0.492Zm1.125,1.074c0.157,0 0.291,-0.029 0.404,-0.088c0.113,-0.06 0.205,-0.139 0.278,-0.237c0.072,-0.099 0.126,-0.213 0.161,-0.342c0.034,-0.13 0.052,-0.266 0.052,-0.407c0,-0.167 -0.021,-0.318 -0.062,-0.451c-0.042,-0.133 -0.101,-0.247 -0.18,-0.341c-0.078,-0.094 -0.173,-0.165 -0.284,-0.214c-0.112,-0.05 -0.237,-0.074 -0.375,-0.074c-0.154,0 -0.288,0.03 -0.4,0.09c-0.113,0.061 -0.206,0.141 -0.278,0.24c-0.073,0.1 -0.126,0.215 -0.161,0.344c-0.035,0.13 -0.052,0.266 -0.052,0.406c0,0.144 0.017,0.28 0.052,0.41c0.035,0.13 0.088,0.244 0.161,0.342c0.072,0.099 0.165,0.177 0.278,0.235c0.112,0.058 0.248,0.087 0.406,0.087Zm-0.19,-2.473l0.371,-0.467l0.258,0l-0.459,0.467l-0.17,0Z" style="fill-rule:nonzero;"/><path d="M71.446,55.982l-0.007,0l0,2.107l-0.227,0l0,-2.416l0.257,0l1.393,2.111l0.007,0l0,-2.111l0.228,0l0,2.416l-0.265,0l-1.386,-2.107Z" style="fill-rule:nonzero;"/><path d="M74.557,58.089l0,-2.416l0.88,0c0.157,0 0.286,0.018 0.387,0.054c0.102,0.035 0.182,0.085 0.241,0.147c0.059,0.063 0.101,0.135 0.124,0.217c0.024,0.081 0.035,0.167 0.035,0.256c0,0.135 -0.027,0.245 -0.082,0.333c-0.054,0.087 -0.125,0.156 -0.212,0.206c-0.087,0.051 -0.186,0.086 -0.297,0.106c-0.11,0.02 -0.221,0.03 -0.333,0.03l-0.515,0l0,1.067l-0.228,0Zm0.75,-1.262c0.107,0 0.203,-0.006 0.288,-0.02c0.085,-0.013 0.157,-0.038 0.216,-0.075c0.059,-0.037 0.105,-0.087 0.137,-0.151c0.033,-0.064 0.049,-0.147 0.049,-0.25c0,-0.152 -0.05,-0.268 -0.149,-0.346c-0.1,-0.078 -0.258,-0.117 -0.474,-0.117l-0.589,0l0,0.959l0.522,0Z" style="fill-rule:nonzero;"/><path d="M76.519,56.884c0,-0.176 0.024,-0.342 0.072,-0.496c0.048,-0.155 0.119,-0.289 0.213,-0.405c0.093,-0.115 0.21,-0.206 0.348,-0.273c0.138,-0.067 0.298,-0.101 0.479,-0.101c0.187,0 0.352,0.033 0.494,0.099c0.141,0.066 0.26,0.157 0.355,0.272c0.095,0.115 0.166,0.251 0.214,0.406c0.048,0.156 0.072,0.322 0.072,0.498c0,0.175 -0.024,0.339 -0.072,0.492c-0.048,0.153 -0.119,0.288 -0.213,0.403c-0.093,0.115 -0.211,0.206 -0.351,0.273c-0.141,0.068 -0.304,0.101 -0.489,0.101c-0.185,0 -0.348,-0.033 -0.489,-0.101c-0.141,-0.067 -0.258,-0.158 -0.352,-0.273c-0.093,-0.115 -0.164,-0.25 -0.211,-0.403c-0.046,-0.153 -0.07,-0.317 -0.07,-0.492Zm1.125,1.074c0.156,0 0.291,-0.029 0.404,-0.088c0.112,-0.06 0.205,-0.139 0.278,-0.237c0.072,-0.099 0.126,-0.213 0.16,-0.342c0.035,-0.13 0.052,-0.266 0.052,-0.407c0,-0.167 -0.02,-0.318 -0.062,-0.451c-0.041,-0.133 -0.101,-0.247 -0.179,-0.341c-0.078,-0.094 -0.173,-0.165 -0.284,-0.214c-0.112,-0.05 -0.237,-0.074 -0.376,-0.074c-0.154,0 -0.287,0.03 -0.4,0.09c-0.112,0.061 -0.205,0.141 -0.278,0.24c-0.072,0.1 -0.126,0.215 -0.16,0.344c-0.035,0.13 -0.052,0.266 -0.052,0.406c0,0.144 0.017,0.28 0.052,0.41c0.034,0.13 0.088,0.244 0.16,0.342c0.073,0.099 0.166,0.177 0.278,0.235c0.113,0.058 0.249,0.087 0.407,0.087Z" style="fill-rule:nonzero;"/><path d="M79.312,57.368c0.009,0.107 0.033,0.198 0.072,0.273c0.039,0.075 0.089,0.136 0.15,0.183c0.062,0.047 0.133,0.081 0.213,0.103c0.08,0.021 0.166,0.031 0.258,0.031c0.107,0 0.2,-0.013 0.278,-0.04c0.078,-0.027 0.142,-0.063 0.191,-0.109c0.049,-0.046 0.085,-0.099 0.109,-0.159c0.023,-0.061 0.035,-0.124 0.035,-0.192c0,-0.094 -0.022,-0.17 -0.064,-0.228c-0.042,-0.058 -0.098,-0.106 -0.166,-0.142c-0.068,-0.037 -0.146,-0.067 -0.234,-0.089c-0.088,-0.023 -0.179,-0.045 -0.271,-0.066c-0.093,-0.021 -0.183,-0.046 -0.272,-0.075c-0.088,-0.029 -0.166,-0.069 -0.234,-0.118c-0.068,-0.049 -0.123,-0.112 -0.166,-0.189c-0.042,-0.078 -0.063,-0.176 -0.063,-0.294c0,-0.083 0.017,-0.163 0.052,-0.242c0.034,-0.078 0.086,-0.147 0.154,-0.208c0.068,-0.06 0.153,-0.108 0.256,-0.144c0.102,-0.036 0.221,-0.054 0.355,-0.054c0.136,0 0.255,0.019 0.356,0.057c0.102,0.038 0.186,0.09 0.253,0.156c0.067,0.066 0.117,0.143 0.151,0.23c0.033,0.087 0.05,0.18 0.05,0.279l-0.218,0c0,-0.092 -0.016,-0.171 -0.048,-0.239c-0.033,-0.067 -0.077,-0.122 -0.132,-0.164c-0.056,-0.043 -0.12,-0.074 -0.191,-0.094c-0.072,-0.02 -0.145,-0.03 -0.221,-0.03c-0.116,0 -0.214,0.016 -0.293,0.048c-0.08,0.033 -0.143,0.075 -0.189,0.126c-0.047,0.052 -0.08,0.109 -0.098,0.171c-0.017,0.063 -0.021,0.126 -0.01,0.188c0.014,0.079 0.045,0.141 0.094,0.188c0.049,0.047 0.11,0.086 0.181,0.116c0.071,0.03 0.15,0.055 0.236,0.074c0.086,0.019 0.174,0.039 0.263,0.06c0.089,0.022 0.176,0.047 0.259,0.076c0.084,0.029 0.158,0.068 0.223,0.117c0.065,0.05 0.117,0.113 0.156,0.19c0.039,0.077 0.058,0.174 0.058,0.29c0,0.224 -0.077,0.397 -0.231,0.521c-0.154,0.123 -0.37,0.184 -0.649,0.184c-0.125,0 -0.241,-0.016 -0.349,-0.049c-0.107,-0.032 -0.199,-0.081 -0.277,-0.147c-0.079,-0.066 -0.139,-0.148 -0.183,-0.245c-0.043,-0.098 -0.065,-0.212 -0.065,-0.344l0.221,0Z" style="fill-rule:nonzero;"/><path d="M81.046,55.673l1.755,0l0,0.195l-0.764,0l0,2.221l-0.227,0l0,-2.221l-0.764,0l0,-0.195Z" style="fill-rule:nonzero;"/><path d="M82.905,58.089l0.947,-2.416l0.258,0l0.924,2.416l-0.234,0l-0.278,-0.758l-1.098,0l-0.285,0.758l-0.234,0Zm0.596,-0.953l0.944,0l-0.472,-1.268l-0.472,1.268Z" style="fill-rule:nonzero;"/><path d="M85.359,58.089l0,-2.416l0.228,0l0,2.222l1.292,0l0,0.194l-1.52,0Z" style="fill-rule:nonzero;"/><path d="M88.152,58.089l0,-2.416l1.604,0l0,0.195l-1.376,0l0,0.872l1.242,0l0,0.195l-1.242,0l0,0.96l1.409,0l0,0.194l-1.637,0Z" style="fill-rule:nonzero;"/><path d="M90.426,55.982l-0.007,0l0,2.107l-0.228,0l0,-2.416l0.258,0l1.393,2.111l0.007,0l0,-2.111l0.227,0l0,2.416l-0.264,0l-1.386,-2.107Z" style="fill-rule:nonzero;"/><path d="M93.329,55.673l1.754,0l0,0.195l-0.763,0l0,2.221l-0.228,0l0,-2.221l-0.763,0l0,-0.195Z" style="fill-rule:nonzero;"/><rect x="95.489" y="55.673" width="0.228" height="2.416" style="fill-rule:nonzero;"/><path d="M96.339,58.089l0,-2.416l1.604,0l0,0.195l-1.376,0l0,0.872l1.242,0l0,0.195l-1.242,0l0,0.96l1.41,0l0,0.194l-1.638,0Z" style="fill-rule:nonzero;"/><path d="M98.375,58.089l0,-2.416l0.348,0l0.791,2.131l0.006,0l0.777,-2.131l0.345,0l0,2.416l-0.228,0l0,-2.154l-0.006,0l-0.791,2.154l-0.214,0l-0.794,-2.154l-0.006,0l0,2.154l-0.228,0Z" style="fill-rule:nonzero;"/><path d="M101.164,58.089l0,-2.416l0.881,0c0.156,0 0.285,0.018 0.387,0.054c0.101,0.035 0.182,0.085 0.241,0.147c0.059,0.063 0.1,0.135 0.124,0.217c0.023,0.081 0.035,0.167 0.035,0.256c0,0.135 -0.027,0.245 -0.082,0.333c-0.055,0.087 -0.126,0.156 -0.213,0.206c-0.087,0.051 -0.186,0.086 -0.296,0.106c-0.111,0.02 -0.222,0.03 -0.333,0.03l-0.516,0l0,1.067l-0.228,0Zm0.75,-1.262c0.108,0 0.204,-0.006 0.288,-0.02c0.085,-0.013 0.157,-0.038 0.216,-0.075c0.06,-0.037 0.105,-0.087 0.138,-0.151c0.032,-0.064 0.048,-0.147 0.048,-0.25c0,-0.152 -0.049,-0.268 -0.149,-0.346c-0.099,-0.078 -0.257,-0.117 -0.474,-0.117l-0.589,0l0,0.959l0.522,0Z" style="fill-rule:nonzero;"/><path d="M103.127,56.884c0,-0.176 0.024,-0.342 0.072,-0.496c0.048,-0.155 0.119,-0.289 0.212,-0.405c0.094,-0.115 0.21,-0.206 0.349,-0.273c0.138,-0.067 0.298,-0.101 0.478,-0.101c0.188,0 0.353,0.033 0.494,0.099c0.142,0.066 0.26,0.157 0.355,0.272c0.095,0.115 0.167,0.251 0.215,0.406c0.048,0.156 0.072,0.322 0.072,0.498c0,0.175 -0.024,0.339 -0.072,0.492c-0.048,0.153 -0.119,0.288 -0.213,0.403c-0.094,0.115 -0.211,0.206 -0.352,0.273c-0.14,0.068 -0.303,0.101 -0.489,0.101c-0.185,0 -0.348,-0.033 -0.488,-0.101c-0.141,-0.067 -0.258,-0.158 -0.352,-0.273c-0.094,-0.115 -0.164,-0.25 -0.211,-0.403c-0.047,-0.153 -0.07,-0.317 -0.07,-0.492Zm1.125,1.074c0.156,0 0.291,-0.029 0.403,-0.088c0.113,-0.06 0.206,-0.139 0.278,-0.237c0.073,-0.099 0.126,-0.213 0.161,-0.342c0.035,-0.13 0.052,-0.266 0.052,-0.407c0,-0.167 -0.021,-0.318 -0.062,-0.451c-0.041,-0.133 -0.101,-0.247 -0.179,-0.341c-0.078,-0.094 -0.173,-0.165 -0.285,-0.214c-0.112,-0.05 -0.237,-0.074 -0.375,-0.074c-0.154,0 -0.287,0.03 -0.4,0.09c-0.113,0.061 -0.205,0.141 -0.278,0.24c-0.073,0.1 -0.126,0.215 -0.161,0.344c-0.034,0.13 -0.052,0.266 -0.052,0.406c0,0.144 0.018,0.28 0.052,0.41c0.035,0.13 0.088,0.244 0.161,0.342c0.073,0.099 0.165,0.177 0.278,0.235c0.113,0.058 0.248,0.087 0.407,0.087Z" style="fill-rule:nonzero;"/><path d="M107.691,56.797c0.085,0 0.163,-0.009 0.236,-0.027c0.072,-0.018 0.135,-0.046 0.189,-0.085c0.054,-0.039 0.096,-0.089 0.127,-0.15c0.031,-0.06 0.047,-0.133 0.047,-0.218c0,-0.089 -0.016,-0.163 -0.048,-0.221c-0.033,-0.058 -0.076,-0.104 -0.131,-0.138c-0.055,-0.033 -0.117,-0.057 -0.188,-0.07c-0.07,-0.014 -0.143,-0.02 -0.219,-0.02l-0.723,0l0,0.929l0.71,0Zm-0.71,0.195l0,1.097l-0.228,0l0,-2.416l0.944,0c0.266,0 0.469,0.05 0.61,0.149c0.14,0.1 0.211,0.261 0.211,0.485c0,0.152 -0.031,0.273 -0.092,0.363c-0.062,0.089 -0.162,0.165 -0.3,0.228c0.071,0.025 0.127,0.06 0.167,0.107c0.041,0.047 0.071,0.101 0.091,0.161c0.02,0.061 0.033,0.125 0.038,0.192c0.006,0.067 0.01,0.132 0.012,0.194c0.002,0.092 0.006,0.168 0.012,0.229c0.005,0.06 0.012,0.109 0.02,0.147c0.008,0.038 0.017,0.068 0.028,0.089c0.012,0.021 0.025,0.038 0.041,0.049l0,0.023l-0.252,0c-0.024,-0.04 -0.041,-0.096 -0.052,-0.167c-0.01,-0.072 -0.017,-0.147 -0.023,-0.225c-0.006,-0.079 -0.01,-0.155 -0.013,-0.229c-0.004,-0.073 -0.01,-0.134 -0.019,-0.181c-0.013,-0.065 -0.035,-0.117 -0.065,-0.156c-0.03,-0.039 -0.066,-0.069 -0.109,-0.089c-0.042,-0.02 -0.09,-0.033 -0.142,-0.04c-0.053,-0.007 -0.107,-0.01 -0.163,-0.01l-0.716,0Z" style="fill-rule:nonzero;"/><path d="M108.99,58.089l0,-2.416l1.604,0l0,0.195l-1.376,0l0,0.872l1.242,0l0,0.195l-1.242,0l0,0.96l1.409,0l0,0.194l-1.637,0Z" style="fill-rule:nonzero;"/><path d="M110.815,58.089l0.948,-2.416l0.257,0l0.925,2.416l-0.235,0l-0.278,-0.758l-1.098,0l-0.285,0.758l-0.234,0Zm0.596,-0.953l0.944,0l-0.472,-1.268l-0.472,1.268Z" style="fill-rule:nonzero;"/><path d="M113.269,58.089l0,-2.416l0.228,0l0,2.222l1.293,0l0,0.194l-1.521,0Z" style="fill-rule:nonzero;"/></g></g><path d="M116.965,38.952c-0.544,0 -1.053,-0.103 -1.527,-0.31c-0.475,-0.206 -0.89,-0.486 -1.244,-0.841c-0.354,-0.354 -0.634,-0.768 -0.841,-1.243c-0.206,-0.475 -0.309,-0.984 -0.309,-1.527c0,-0.537 0.103,-1.042 0.309,-1.517c0.207,-0.474 0.487,-0.887 0.841,-1.238c0.354,-0.351 0.769,-0.629 1.244,-0.836c0.474,-0.206 0.983,-0.309 1.527,-0.309c0.536,0 1.042,0.103 1.516,0.309c0.475,0.207 0.889,0.485 1.244,0.836c0.354,0.351 0.633,0.764 0.835,1.238c0.203,0.475 0.305,0.98 0.305,1.517c0,0.543 -0.102,1.052 -0.305,1.527c-0.202,0.475 -0.481,0.889 -0.835,1.243c-0.355,0.355 -0.769,0.635 -1.244,0.841c-0.474,0.207 -0.98,0.31 -1.516,0.31Zm0,-0.516c0.474,0 0.913,-0.088 1.315,-0.263c0.403,-0.176 0.748,-0.416 1.037,-0.722c0.289,-0.307 0.516,-0.666 0.681,-1.079c0.165,-0.412 0.248,-0.86 0.248,-1.341c0,-0.475 -0.083,-0.918 -0.248,-1.331c-0.165,-0.413 -0.392,-0.771 -0.681,-1.073c-0.289,-0.303 -0.634,-0.542 -1.037,-0.717c-0.402,-0.176 -0.841,-0.263 -1.315,-0.263c-0.475,0 -0.915,0.087 -1.321,0.263c-0.406,0.175 -0.755,0.414 -1.047,0.717c-0.293,0.302 -0.521,0.66 -0.687,1.073c-0.165,0.413 -0.247,0.856 -0.247,1.331c0,0.481 0.082,0.929 0.247,1.341c0.166,0.413 0.394,0.772 0.687,1.079c0.292,0.306 0.641,0.546 1.047,0.722c0.406,0.175 0.846,0.263 1.321,0.263Zm1.95,-1.218l-0.64,0l-1.248,-2.012l-0.981,0l0,2.012l-0.536,0l0,-4.364l1.909,0c0.577,0 0.98,0.103 1.207,0.309c0.227,0.207 0.34,0.489 0.34,0.846c0,0.214 -0.034,0.396 -0.103,0.547c-0.069,0.152 -0.165,0.274 -0.289,0.367c-0.124,0.092 -0.27,0.161 -0.438,0.206c-0.169,0.045 -0.349,0.07 -0.542,0.077l1.321,2.012Zm-2.054,-2.435l0.496,0c0.179,0 0.345,-0.02 0.5,-0.062c0.155,-0.041 0.282,-0.117 0.382,-0.227c0.1,-0.11 0.15,-0.275 0.15,-0.495c0,-0.172 -0.033,-0.308 -0.099,-0.407c-0.065,-0.1 -0.149,-0.176 -0.252,-0.227c-0.103,-0.052 -0.22,-0.086 -0.351,-0.104c-0.131,-0.017 -0.262,-0.025 -0.392,-0.025l-1.249,0l0,1.547l0.815,0Z" style="fill-rule:nonzero;"/></g></svg>