<?xml version="1.0" encoding="UTF-8" standalone="no"?>
<svg
   xmlns:serif="http://www.serif.com/"
   xmlns:dc="http://purl.org/dc/elements/1.1/"
   xmlns:cc="http://creativecommons.org/ns#"
   xmlns:rdf="http://www.w3.org/1999/02/22-rdf-syntax-ns#"
   xmlns:svg="http://www.w3.org/2000/svg"
   xmlns="http://www.w3.org/2000/svg"
   xmlns:sodipodi="http://sodipodi.sourceforge.net/DTD/sodipodi-0.dtd"
   xmlns:inkscape="http://www.inkscape.org/namespaces/inkscape"
   id="svg113"
   style="clip-rule:evenodd;fill-rule:evenodd;stroke-linejoin:round;stroke-miterlimit:2"
   xml:space="preserve"
   version="1.1"
   viewBox="0 0 400.10693 223.12105"
   height="223.12105"
   width="400.10693"
   sodipodi:docname="logo_certificado.svg"
   inkscape:version="0.92.3 (2405546, 2018-03-11)"><sodipodi:namedview
   pagecolor="#ffffff"
   bordercolor="#666666"
   borderopacity="1"
   objecttolerance="10"
   gridtolerance="10"
   guidetolerance="10"
   inkscape:pageopacity="0"
   inkscape:pageshadow="2"
   inkscape:window-width="1920"
   inkscape:window-height="1048"
   id="namedview60"
   showgrid="false"
   inkscape:zoom="2.9916891"
   inkscape:cx="228.27018"
   inkscape:cy="72.964"
   inkscape:window-x="0"
   inkscape:window-y="0"
   inkscape:window-maximized="1"
   inkscape:current-layer="Mesa-de-trabajo1" /><metadata
   id="metadata119"><rdf:RDF><cc:Work
       rdf:about=""><dc:format>image/svg+xml</dc:format><dc:type
         rdf:resource="http://purl.org/dc/dcmitype/StillImage" /><dc:title /></cc:Work></rdf:RDF></metadata><defs
   id="defs117" />
    <g
   transform="matrix(1.82464,0,0,2.04366,-171.09768,-77.595877)"
   serif:id="Mesa de trabajo1"
   id="Mesa-de-trabajo1">
        
        <g
   id="g110"
   transform="matrix(1.34498,0,0,1.34498,-14.8254,-41.4225)">
            
            
            
            
            
            
            
        </g>
    <g
   id="g6"
   transform="matrix(0.73711899,0,0,0.65812425,-15.413627,11.261413)"
   style="clip-rule:evenodd;fill-rule:evenodd;stroke-linejoin:round;stroke-miterlimit:2"><path
     id="path4"
     style="fill:#27476e;fill-rule:nonzero;fill-opacity:1"
     d="m 214.566,156.986 c -3.298,0.002 -4.947,3.673 -4.947,11.02 v 8.993 c 0,1.948 0.075,3.711 0.224,5.283 0.15,1.574 0.226,2.812 0.226,3.71 0,3.074 -1.35,4.611 -4.048,4.611 -2.624,0 -3.935,-1.313 -3.935,-3.937 0,0 0.075,-0.898 0.224,-2.696 0.077,-0.676 0.152,-1.838 0.226,-3.487 -1.723,2.323 -3.074,3.935 -4.046,4.835 -4.347,3.897 -10.381,5.847 -18.101,5.847 -9.669,0 -17.464,-3.599 -23.385,-10.794 -5.922,-7.195 -8.881,-16.601 -8.881,-28.217 0,-12.443 3.016,-22.374 9.05,-29.793 6.033,-7.421 14.146,-11.131 24.34,-11.131 7.494,0 14.278,2.81 20.349,8.433 -0.151,-1.05 -0.226,-1.649 -0.226,-1.801 -0.149,-1.497 -0.224,-2.322 -0.224,-2.472 0,-2.474 1.236,-3.71 3.711,-3.71 2.696,0 4.046,1.611 4.046,4.834 0,1.05 -0.037,1.836 -0.112,2.361 l -0.788,5.396 c -0.224,1.575 -0.336,3.261 -0.336,5.059 0,1.425 0.149,4.459 0.448,9.108 v 1.012 c 0,3.372 -1.385,5.058 -4.158,5.058 -2.624,0 -3.935,-1.837 -3.935,-5.508 v -3.373 c 0,-5.173 -1.706,-9.257 -5.116,-12.256 -3.41,-2.997 -8.001,-4.496 -13.773,-4.496 -7.269,0 -12.965,2.81 -17.088,8.433 -4.121,5.621 -6.183,13.34 -6.183,23.159 0,10.418 2.119,18.549 6.352,24.396 4.235,5.847 10.1,8.769 17.595,8.769 5.771,0 10.23,-1.686 13.378,-5.059 3.149,-3.372 4.723,-8.17 4.723,-14.39 0,-2.549 -0.432,-4.329 -1.293,-5.342 -0.863,-1.01 -2.38,-1.517 -4.554,-1.517 -0.599,0 -1.462,0.038 -2.586,0.112 -1.124,0.075 -1.985,0.114 -2.585,0.114 -3.598,0 -5.396,-1.275 -5.396,-3.822 0,-2.624 1.537,-3.937 4.608,-3.937 0.975,0 2.062,0.077 3.261,0.226 4.722,0.6 8.508,0.898 11.355,0.898 3.671,0 7.569,-0.336 11.692,-1.01 0.9,-0.151 1.91,-0.226 3.034,-0.226 3,0 4.499,1.236 4.499,3.711 0,1.049 -0.395,1.949 -1.181,2.698 -0.786,0.749 -1.706,1.124 -2.756,1.124 -0.898,0 -1.572,-0.037 -2.022,-0.112 -0.149,0 -0.412,-0.037 -0.788,-0.114 z m 39.348,33.617 c -7.87,0 -14.167,-2.718 -18.887,-8.152 -4.723,-5.434 -7.083,-12.722 -7.083,-21.866 0,-9.145 2.38,-16.432 7.138,-21.866 4.76,-5.435 11.149,-8.151 19.17,-8.151 8.17,0 14.614,2.659 19.336,7.981 4.721,5.323 7.083,12.555 7.083,21.698 0,9.144 -2.437,16.489 -7.307,22.035 -4.872,5.548 -11.355,8.321 -19.45,8.321 z m 147.162,-50.705 h -1.348 c -2.623,0 -3.934,-1.162 -3.934,-3.485 0,-2.624 1.462,-3.934 4.384,-3.934 0.674,0 1.704,0.074 3.092,0.224 1.385,0.151 2.417,0.226 3.091,0.226 0.6,0 1.5,-0.057 2.699,-0.169 1.198,-0.112 2.099,-0.169 2.698,-0.169 2.248,0 3.372,1.198 3.372,3.598 0,1.05 -0.074,1.873 -0.223,2.472 -0.376,2.848 -0.563,7.046 -0.563,12.592 v 17.315 c 0,4.571 0.038,7.118 0.112,7.643 0.374,3.974 1.423,5.959 3.147,5.959 0.524,0 1.275,-0.093 2.25,-0.281 0.973,-0.187 1.724,-0.281 2.249,-0.281 2.546,0 3.822,1.236 3.822,3.71 0,2.549 -1.574,3.823 -4.723,3.823 -0.674,0 -1.649,-0.075 -2.922,-0.226 -1.875,-0.224 -3.037,-0.336 -3.487,-0.336 -0.224,0 -1.01,0.074 -2.36,0.224 -0.9,0.226 -1.686,0.338 -2.36,0.338 -2.099,0 -3.149,-1.087 -3.149,-3.261 v -3.484 c -3.972,5.471 -9.856,8.207 -17.65,8.207 -8.844,0 -14.99,-2.736 -18.437,-8.207 -1.499,-2.4 -2.325,-5.21 -2.474,-8.433 -0.075,-1.575 -0.112,-4.873 -0.112,-9.894 v -9.331 c 0,-10.267 -1.087,-15.402 -3.261,-15.402 -0.45,0 -1.161,0.094 -2.136,0.281 -0.975,0.188 -1.724,0.281 -2.248,0.281 -2.624,0 -3.935,-1.237 -3.935,-3.709 0,-2.4 1.612,-3.598 4.835,-3.598 0.749,0 1.853,0.074 3.315,0.226 1.463,0.149 2.567,0.224 3.318,0.224 0.674,0 1.835,-0.112 3.484,-0.338 1.124,-0.15 1.761,-0.224 1.91,-0.224 2.326,0 3.487,1.425 3.487,4.272 v 2.361 l -0.112,7.307 -0.338,8.319 v 7.309 c 0,6.521 0.525,11.204 1.574,14.052 1.724,4.723 5.845,7.083 12.366,7.083 3.223,0 6.071,-0.731 8.545,-2.191 2.472,-1.463 4.196,-3.393 5.171,-5.79 1.199,-2.925 1.798,-8.471 1.798,-16.641 v -13.49 c -0.373,-3.598 -1.348,-5.396 -2.922,-5.396 -0.824,0 -1.5,0.074 -2.025,0.224 z m -93.985,-23.608 -0.45,21.809 c 2.997,-2.847 5.733,-4.815 8.207,-5.901 2.473,-1.087 5.397,-1.63 8.77,-1.63 6.444,0 11.616,1.836 15.514,5.509 3.897,3.671 5.847,8.506 5.847,14.502 v 18.775 c 0,4.422 0.037,6.857 0.112,7.307 0.298,3.748 1.273,5.621 2.922,5.621 0.599,0 1.462,-0.15 2.586,-0.448 0.45,-0.077 1.05,-0.114 1.799,-0.114 2.773,0 4.16,1.238 4.16,3.71 0,2.475 -1.8,3.711 -5.397,3.711 -0.974,0 -2.399,-0.112 -4.272,-0.338 -3.149,-0.374 -5.696,-0.562 -7.645,-0.562 -1.948,0 -3.447,0.074 -4.497,0.226 -3.148,0.448 -5.096,0.674 -5.847,0.674 -1.348,0 -2.472,-0.393 -3.372,-1.181 -0.898,-0.787 -1.348,-1.779 -1.348,-2.98 0,-0.973 0.393,-1.798 1.179,-2.472 0.788,-0.674 1.706,-1.012 2.755,-1.012 0.823,0 1.798,0.186 2.922,0.562 0.675,0.224 1.313,0.338 1.913,0.338 2.248,0 3.41,-2.437 3.484,-7.309 0,-0.898 0.038,-2.659 0.112,-5.283 l 0.112,-4.835 v -6.071 c 0,-7.645 -0.748,-12.778 -2.248,-15.402 -2.174,-3.897 -5.996,-5.847 -11.466,-5.847 -5.921,0 -10.231,2.025 -12.929,6.071 -1.873,2.773 -2.848,7.235 -2.923,13.38 l -0.112,8.093 c 0,0.45 -0.039,1.201 -0.114,2.249 v 2.136 c 0,4.273 0.037,6.747 0.114,7.421 0.373,3.673 1.46,5.509 3.258,5.509 0.602,0 1.445,-0.132 2.532,-0.393 1.087,-0.264 1.893,-0.395 2.415,-0.395 2.4,0 3.599,1.163 3.599,3.486 0,2.624 -1.649,3.935 -4.947,3.935 -1.049,0 -2.624,-0.112 -4.723,-0.338 -2.847,-0.299 -5.282,-0.45 -7.307,-0.45 -1.273,0 -3.034,0.114 -5.282,0.338 -2.999,0.3 -4.91,0.45 -5.735,0.45 -3.072,0 -4.609,-1.351 -4.609,-4.047 0,-2.25 1.423,-3.374 4.273,-3.374 0.973,0 1.686,0.076 2.134,0.226 1.276,0.224 2.174,0.336 2.698,0.336 1.201,0 2.005,-1.142 2.418,-3.428 0.413,-2.285 0.656,-6.951 0.731,-13.997 l 0.112,-20.125 c 0,-11.241 -0.224,-18.344 -0.674,-21.304 -0.45,-2.959 -1.5,-4.441 -3.149,-4.441 -0.524,0 -1.31,0.114 -2.36,0.338 -1.049,0.226 -1.873,0.338 -2.472,0.338 -2.549,0 -3.823,-1.199 -3.823,-3.599 0,-1.049 0.448,-1.947 1.348,-2.698 0.901,-0.749 1.987,-1.124 3.261,-1.124 0.375,0 1.649,0.112 3.822,0.338 1.423,0.149 2.96,0.224 4.609,0.224 0.674,0 1.612,-0.075 2.81,-0.224 1.201,-0.149 2.062,-0.226 2.587,-0.226 1.723,0 2.586,1.238 2.586,3.71 z m -52.615,21.697 c -5.246,0 -9.369,1.836 -12.366,5.509 -2.999,3.673 -4.648,8.881 -4.947,15.626 v 1.463 c 0,7.045 1.48,12.572 4.44,16.583 2.962,4.009 7.103,6.014 12.423,6.014 5.471,0 9.763,-2.005 12.872,-6.014 3.112,-4.011 4.666,-9.575 4.666,-16.695 0,-14.99 -5.695,-22.486 -17.088,-22.486 z m 125.834,-11.5 h 3.893 c 16.893,-9.793 32.37,-18.838 32.357,-19.1 0.055,-0.211 0.046,-0.445 -0.044,-0.716 l -28.42,-49.269 c -0.329,-0.378 -0.751,-0.542 -1.311,-0.351 l -74.58,43.102 c -0.095,0.081 -0.189,0.164 -0.281,0.246 -0.165,0.333 -0.167,0.338 -0.191,0.709 l 0.12,0.355 14.432,25.024 h 2.216 l -13.705,-23.761 36.783,8.899 -4.374,14.862 h 2 l 4.079,-14.308 c 0,0 16.073,3.968 18.026,4.02 l 4.725,-17.286 36.592,8.896 z m 33.699,-20.318 -37.352,-9.037 10.857,-36.9 z" /></g><g
   id="g10"
   transform="matrix(0.73711899,0,0,0.65812425,-15.413627,20.333572)"
   style="clip-rule:evenodd;fill-rule:evenodd;stroke-linejoin:round;stroke-miterlimit:2"><path
     id="path8"
     style="fill:#27476e;fill-opacity:1"
     d="M 325.536,28.471 313.2,87.656 c -0.085,0.405 -0.482,0.665 -0.888,0.581 -0.405,-0.085 -0.665,-0.482 -0.581,-0.887 l 12.498,-59.957 c 0.041,-0.201 0.164,-0.376 0.339,-0.484 0.174,-0.108 0.385,-0.14 0.584,-0.088 l 62.292,16.264 c 0.4,0.105 0.641,0.515 0.536,0.915 -0.105,0.401 -0.515,0.641 -0.915,0.536 z" /></g><g
   id="g14"
   transform="matrix(0.63836384,-0.32906281,0.36855949,0.56995278,-24.694117,123.78338)"
   style="clip-rule:evenodd;fill-rule:evenodd;stroke-linejoin:round;stroke-miterlimit:2"><path
     id="path12"
     style="fill:#ffffff"
     d="m 388.45,96.426 -58.386,-0.044 v 19.473 l 29.54,28.179 28.846,-28.104 z" /></g><g
   id="g18"
   transform="matrix(0.63836384,-0.32906281,0.36855949,0.56995278,-24.694117,123.78338)"
   style="clip-rule:evenodd;fill-rule:evenodd;stroke-linejoin:round;stroke-miterlimit:2"><path
     id="path16"
     style="fill:#27476e;fill-opacity:1"
     d="m 389.2,96.426 c 0,-0.414 -0.335,-0.75 -0.749,-0.75 l -58.386,-0.044 c -0.199,0 -0.39,0.079 -0.531,0.219 -0.141,0.141 -0.22,0.332 -0.22,0.531 v 19.473 c 0,0.205 0.084,0.401 0.233,0.542 l 29.539,28.18 c 0.292,0.279 0.752,0.276 1.041,-0.005 l 28.846,-28.105 c 0.145,-0.141 0.227,-0.335 0.227,-0.537 z m -58.386,0.707 v 18.401 l 28.784,27.459 28.102,-27.38 V 97.175 Z" /></g><g
   id="g22"
   transform="matrix(0.73711899,0,0,0.65812425,-12.393347,38.315552)"
   style="clip-rule:evenodd;fill-rule:evenodd;stroke-linejoin:round;stroke-miterlimit:2"><path
     id="path20"
     style="fill:#27476e;fill-rule:nonzero;fill-opacity:1"
     d="m 431.114,114.429 c -1.449,0 -2.806,-0.274 -4.07,-0.825 -1.265,-0.549 -2.369,-1.296 -3.313,-2.24 -0.944,-0.944 -1.691,-2.049 -2.242,-3.315 -0.549,-1.265 -0.823,-2.622 -0.823,-4.069 0,-1.429 0.274,-2.777 0.823,-4.042 0.551,-1.265 1.298,-2.365 2.242,-3.3 0.944,-0.935 2.048,-1.677 3.313,-2.228 1.264,-0.549 2.621,-0.824 4.07,-0.824 1.43,0 2.778,0.275 4.043,0.824 1.264,0.551 2.369,1.293 3.313,2.228 0.944,0.935 1.686,2.035 2.228,3.3 0.54,1.265 0.81,2.613 0.81,4.042 0,1.447 -0.27,2.804 -0.81,4.069 -0.542,1.266 -1.284,2.371 -2.228,3.315 -0.944,0.944 -2.049,1.691 -3.313,2.24 -1.265,0.551 -2.613,0.825 -4.043,0.825 z m 0,-1.374 c 1.265,0 2.433,-0.235 3.507,-0.701 1.071,-0.467 1.993,-1.111 2.764,-1.925 0.769,-0.817 1.375,-1.774 1.814,-2.874 0.441,-1.1 0.661,-2.293 0.661,-3.575 0,-1.264 -0.22,-2.448 -0.661,-3.548 -0.439,-1.1 -1.045,-2.053 -1.814,-2.859 -0.771,-0.808 -1.693,-1.444 -2.764,-1.912 -1.074,-0.468 -2.242,-0.7 -3.507,-0.7 -1.264,0 -2.439,0.232 -3.519,0.7 -1.083,0.468 -2.013,1.104 -2.791,1.912 -0.779,0.806 -1.39,1.759 -1.829,2.859 -0.441,1.1 -0.661,2.284 -0.661,3.548 0,1.282 0.22,2.475 0.661,3.575 0.439,1.1 1.05,2.057 1.829,2.874 0.778,0.814 1.708,1.458 2.791,1.925 1.08,0.466 2.255,0.701 3.519,0.701 z m 5.197,-3.246 h -1.703 l -3.329,-5.361 h -2.613 v 5.361 h -1.429 V 98.177 h 5.087 c 1.539,0 2.613,0.275 3.217,0.826 0.606,0.549 0.909,1.302 0.909,2.255 0,0.568 -0.092,1.054 -0.277,1.458 -0.182,0.401 -0.439,0.728 -0.768,0.974 -0.332,0.248 -0.72,0.433 -1.171,0.551 -0.447,0.119 -0.928,0.187 -1.442,0.207 z m -7.645,-6.49 h 3.494 c 0.476,0 0.92,-0.055 1.332,-0.164 0.413,-0.11 0.753,-0.312 1.019,-0.604 0.266,-0.294 0.397,-0.733 0.397,-1.322 0,-0.457 -0.085,-0.819 -0.261,-1.085 -0.173,-0.265 -0.397,-0.467 -0.674,-0.606 -0.274,-0.136 -0.586,-0.228 -0.933,-0.274 -0.349,-0.046 -0.698,-0.068 -1.045,-0.068 h -3.329 z" /></g><g
   id="g26"
   transform="matrix(-0.11102864,0.0572328,0.06410242,0.09913014,307.85176,10.001436)"
   style="clip-rule:evenodd;fill-rule:evenodd;stroke-linejoin:round;stroke-miterlimit:2"><path
     id="path24"
     style="fill:#27476e;fill-opacity:1"
     d="m 579.542,269.093 c -0.843,-0.551 -1.316,-1.52 -1.23,-2.523 0.085,-1.004 0.714,-1.879 1.638,-2.28 4.237,-1.856 7.856,-3.9 11.092,-5.772 6.968,-4.031 12.42,-7.171 18.058,-6.974 4.742,0.166 10.547,3.306 17.102,7.189 0.63,0.373 1.269,0.753 1.916,1.137 0.779,0.461 1.292,1.266 1.383,2.166 0.09,0.901 -0.253,1.791 -0.925,2.398 -0.002,-0.001 -0.002,-0.001 -0.002,-0.001 -0.83,0.75 -2.051,0.875 -3.016,0.308 -0.73,-0.429 -1.449,-0.856 -2.159,-1.276 -5.601,-3.318 -10.44,-6.282 -14.491,-6.424 -4.762,-0.167 -9.227,2.834 -15.111,6.238 -3.398,1.965 -7.193,4.103 -11.623,6.055 -0.845,0.37 -1.82,0.29 -2.593,-0.214 -0.012,-0.01 -0.026,-0.018 -0.039,-0.027 z m -13.004,-12.34 c -0.563,-0.733 -0.718,-1.701 -0.412,-2.573 0.306,-0.873 1.032,-1.532 1.93,-1.753 10.572,-2.609 18.185,-7.397 24.404,-11.48 7.095,-4.658 12.686,-8.282 18.365,-8.038 6.054,0.259 12.066,3.875 18.398,8.282 2.971,2.067 6.028,4.318 9.246,6.354 1.274,0.792 1.667,2.466 0.879,3.742 0,0.001 0,0.001 -10e-4,0.001 -0.38,0.617 -0.991,1.057 -1.697,1.224 -0.706,0.166 -1.449,0.045 -2.066,-0.337 -1.718,-1.075 -3.394,-2.204 -5.035,-3.343 -3.722,-2.582 -7.259,-5.194 -10.728,-7.193 -3.115,-1.795 -6.146,-3.103 -9.232,-3.235 -2.156,-0.093 -4.258,0.658 -6.512,1.81 -2.643,1.352 -5.439,3.257 -8.599,5.331 -6.648,4.365 -14.793,9.45 -26.076,12.245 -1.053,0.26 -2.159,-0.127 -2.82,-0.986 -0.017,-0.016 -0.03,-0.033 -0.044,-0.051 z m -7.113,-11.549 c -0.384,-0.777 -0.377,-1.689 0.017,-2.46 0.394,-0.77 1.13,-1.309 1.984,-1.453 14.477,-2.475 24.73,-9.788 32.851,-15.792 4.4,-3.253 8.225,-6.143 11.734,-7.875 2.741,-1.352 5.338,-2.031 7.861,-1.868 2.163,0.139 4.422,1.005 6.755,2.46 2.971,1.853 6.137,4.703 9.534,7.845 4.116,3.808 8.587,8.141 13.586,11.312 1.09,0.669 1.532,2.031 1.043,3.212 0.005,0.002 0.004,0.003 0.004,0.003 -0.311,0.753 -0.937,1.331 -1.712,1.581 -0.775,0.251 -1.621,0.149 -2.314,-0.28 -3.603,-2.296 -6.969,-5.079 -10.121,-7.914 -4.238,-3.812 -8.075,-7.676 -11.638,-10.224 -1.938,-1.386 -3.731,-2.393 -5.49,-2.507 -2.116,-0.136 -4.261,0.776 -6.629,2.151 -2.836,1.646 -5.895,3.978 -9.343,6.527 -8.695,6.428 -19.703,14.15 -35.187,16.811 -1.188,0.202 -2.368,-0.4 -2.902,-1.48 -0.016,-0.014 -0.025,-0.032 -0.033,-0.049 z m -7.968,-52.405 c 0.112,-0.852 0.623,-1.601 1.377,-2.015 0.753,-0.415 1.659,-0.447 2.439,-0.086 3.028,1.372 7.85,2.731 13.036,0.846 2.59,-0.941 4.729,-3.041 6.741,-5.637 2.32,-2.992 4.431,-6.599 6.626,-10.076 2.372,-3.756 4.847,-7.362 7.688,-10.052 3.209,-3.039 6.886,-4.956 11.307,-4.995 5.346,-0.047 10.069,3.585 12.909,9.612 5.815,12.342 3.688,35.111 -17.004,48.721 -15.137,9.957 -28.94,14.537 -38.507,16.644 -1.373,0.286 -2.74,-0.513 -3.166,-1.849 -0.004,-0.011 -0.008,-0.021 -0.011,-0.032 -0.235,-0.74 -0.145,-1.544 0.247,-2.214 0.392,-0.669 1.05,-1.14 1.81,-1.297 9.014,-1.991 22.156,-6.344 36.605,-15.847 15.321,-10.078 19.102,-25.872 16.678,-36.906 -0.758,-3.453 -2.116,-6.423 -3.957,-8.506 -1.545,-1.749 -3.425,-2.845 -5.555,-2.826 -2.983,0.026 -5.409,1.438 -7.574,3.489 -2.534,2.399 -4.704,5.644 -6.819,8.994 -2.774,4.394 -5.448,8.968 -8.496,12.404 -2.31,2.604 -4.852,4.58 -7.728,5.573 -5.882,2.03 -11.858,1.015 -17.109,-1.233 -1.054,-0.464 -1.676,-1.568 -1.526,-2.71 -0.011,-0.002 -0.011,-0.002 -0.011,-0.002 z m 97.475,34.987 c -0.183,0.764 -0.679,1.417 -1.366,1.799 -0.688,0.381 -1.504,0.457 -2.249,0.207 -22.966,-7.896 -29.479,-33.858 -29.479,-33.858 -0.366,-1.473 0.533,-2.966 2.006,-3.331 1.473,-0.366 2.966,0.533 3.331,2.006 0,0 5.662,23.068 25.962,29.974 1.333,0.442 2.107,1.832 1.779,3.198 0.016,0.004 0.016,0.004 0.016,0.005 z m -98.291,-22.642 c 0.005,-0.885 0.436,-1.714 1.157,-2.227 0.722,-0.513 1.646,-0.648 2.484,-0.363 5.32,1.724 11.829,2.455 18.674,0.12 6.047,-2.062 9.281,-6.337 11.53,-10.717 1.671,-3.254 2.826,-6.586 4.051,-9.327 1.562,-3.498 3.391,-6.1 5.848,-7.25 1.849,-0.865 4.107,-1.06 7.018,-0.037 3.429,1.204 5.391,4.479 5.541,9.034 0.273,8.25 -5.72,21.164 -15.327,27.214 -10.937,6.888 -25.659,10.382 -36.593,12.127 -1.474,0.227 -2.857,-0.773 -3.102,-2.245 -10e-4,0 -10e-4,-0.001 -10e-4,-0.001 -0.12,-0.721 0.053,-1.459 0.482,-2.05 0.429,-0.591 1.076,-0.985 1.798,-1.095 10.341,-1.631 24.189,-4.905 34.485,-11.39 6.841,-4.308 11.501,-12.795 12.554,-19.446 0.309,-1.951 0.315,-3.725 -0.132,-5.124 -0.275,-0.862 -0.728,-1.554 -1.527,-1.835 -0.954,-0.335 -1.739,-0.467 -2.417,-0.321 -0.668,0.145 -1.168,0.588 -1.631,1.155 -0.749,0.918 -1.36,2.132 -1.974,3.507 -3.351,7.502 -6.533,18.813 -18.828,23.007 -8.185,2.792 -15.966,1.857 -22.276,-0.197 -1.086,-0.369 -1.814,-1.391 -1.807,-2.537 -0.007,-10e-4 -0.007,-10e-4 -0.007,-0.002 z m 3.296,-24.631 c 0.22,-0.804 0.84,-1.437 1.638,-1.675 0.799,-0.238 1.664,-0.047 2.288,0.506 1.573,1.412 3.72,2.615 6.198,1.897 1.483,-0.429 2.799,-1.814 4.107,-4.213 2.498,-4.583 6.101,-11.558 11.475,-17.227 5.714,-6.028 13.361,-10.588 23.656,-9.83 13.992,1.032 19.308,11.908 22.586,24.66 1.478,5.751 2.573,11.853 4.116,17.339 1.408,5.007 3.142,9.492 6.119,12.487 3.348,3.37 7.868,4.392 12.407,4.344 0.769,-0.005 1.505,0.309 2.033,0.868 0.529,0.559 0.801,1.312 0.753,2.079 0.004,0.001 0.004,0.001 0.004,0.001 -0.089,1.423 -1.263,2.536 -2.689,2.549 -6.001,0.042 -11.966,-1.492 -16.409,-5.964 -2.89,-2.908 -4.928,-6.913 -6.482,-11.52 -2.132,-6.321 -3.382,-13.823 -5.179,-20.814 -2.655,-10.332 -6.327,-19.708 -17.663,-20.543 -8.401,-0.62 -14.598,3.209 -19.261,8.128 -5.004,5.279 -8.31,11.808 -10.638,16.076 -2.229,4.089 -4.75,6.34 -7.333,6.842 -4.608,0.895 -8.849,-1.559 -10.916,-3.052 -0.806,-0.587 -1.166,-1.61 -0.908,-2.573 0.032,-0.123 0.065,-0.244 0.098,-0.365 z m 97.405,19.317 c 0.058,0.966 -0.369,1.898 -1.138,2.485 -0.77,0.588 -1.781,0.754 -2.698,0.444 -1.399,-0.546 -2.733,-1.287 -3.918,-2.352 -1.872,-1.68 -3.379,-4.461 -4.625,-8.037 -1.608,-4.617 -2.891,-10.672 -4.663,-16.979 -4.09,-14.558 -10.807,-30.803 -32.517,-31.112 -28.404,-0.405 -38.785,28.723 -38.785,28.723 -0.513,1.428 -2.09,2.171 -3.518,1.658 -1.428,-0.514 -2.171,-2.09 -1.658,-3.518 0,0 11.876,-32.821 44.04,-32.363 24.868,0.355 33.048,18.448 37.733,35.125 1.738,6.186 2.984,12.128 4.562,16.656 0.878,2.522 1.785,4.57 3.105,5.755 0.678,0.609 1.438,1.013 2.251,1.262 1.005,0.307 1.713,1.207 1.775,2.256 0.054,-0.003 0.054,-0.003 0.054,-0.003 z" /></g><g
   id="g108"
   transform="matrix(0.67931844,0,0,0.60651875,33.331399,-42.299968)"
   style="clip-rule:evenodd;fill-rule:evenodd;stroke-linejoin:round;stroke-miterlimit:2"><g
     id="g30"
     transform="matrix(12.166,0,0,12.166,239.419,312.119)"><path
       id="path28"
       style="fill:#27476e;fill-rule:nonzero;fill-opacity:1"
       d="M 0.081,0 V -0.72 H 0.56 v 0.058 H 0.149 v 0.26 H 0.52 v 0.058 H 0.149 v 0.286 H 0.57 V 0 Z" /></g><g
     id="g34"
     transform="matrix(12.166,0,0,12.166,246.853,312.119)"><path
       id="path32"
       style="fill:#27476e;fill-rule:nonzero;fill-opacity:1"
       d="m 0.018,-0.72 h 0.071 l 0.217,0.64 0.216,-0.64 H 0.593 L 0.343,0 H 0.268 Z" /></g><g
     id="g38"
     transform="matrix(12.166,0,0,12.166,254.286,312.119)"><rect
       id="rect36"
       style="fill:#27476e;fill-rule:nonzero;fill-opacity:1"
       height="0.72000003"
       width="0.068000004"
       y="-0.72000003"
       x="0.105" /></g><g
     id="g42"
     transform="matrix(12.166,0,0,12.166,257.668,312.119)"><path
       id="path40"
       style="fill:#27476e;fill-rule:nonzero;fill-opacity:1"
       d="m 0.081,0 v -0.72 h 0.246 c 0.02,0 0.04,0 0.059,0.001 0.019,0.002 0.038,0.004 0.057,0.007 0.019,0.004 0.037,0.01 0.055,0.017 0.017,0.007 0.034,0.017 0.051,0.029 0.024,0.017 0.044,0.038 0.059,0.063 0.015,0.025 0.027,0.052 0.037,0.079 0.009,0.028 0.015,0.056 0.019,0.084 0.003,0.029 0.005,0.055 0.005,0.079 0,0.024 -0.001,0.048 -0.004,0.073 -0.003,0.025 -0.008,0.049 -0.015,0.072 -0.007,0.024 -0.015,0.047 -0.026,0.068 -0.012,0.022 -0.025,0.042 -0.042,0.06 -0.017,0.019 -0.035,0.034 -0.054,0.045 -0.02,0.011 -0.041,0.02 -0.062,0.026 C 0.444,-0.01 0.421,-0.006 0.398,-0.004 0.375,-0.001 0.351,0 0.327,0 Z m 0.068,-0.058 h 0.163 c 0.031,0 0.06,-0.002 0.087,-0.006 0.027,-0.003 0.054,-0.012 0.082,-0.027 0.024,-0.012 0.044,-0.028 0.059,-0.049 0.015,-0.021 0.028,-0.043 0.037,-0.068 0.009,-0.024 0.015,-0.049 0.019,-0.076 0.003,-0.027 0.005,-0.052 0.005,-0.077 0,-0.026 -0.002,-0.052 -0.005,-0.08 C 0.593,-0.467 0.586,-0.493 0.577,-0.518 0.568,-0.542 0.555,-0.564 0.539,-0.585 0.523,-0.605 0.502,-0.622 0.477,-0.635 0.456,-0.646 0.43,-0.654 0.401,-0.657 0.372,-0.66 0.342,-0.662 0.312,-0.662 H 0.149 Z" /></g><g
     id="g46"
     transform="matrix(12.166,0,0,12.166,266.452,312.119)"><path
       id="path44"
       style="fill:#27476e;fill-rule:nonzero;fill-opacity:1"
       d="M 0.081,0 V -0.72 H 0.56 v 0.058 H 0.149 v 0.26 H 0.52 v 0.058 H 0.149 v 0.286 H 0.57 V 0 Z" /></g><g
     id="g50"
     transform="matrix(12.166,0,0,12.166,273.885,312.119)"><path
       id="path48"
       style="fill:#27476e;fill-rule:nonzero;fill-opacity:1"
       d="M 0.149,-0.628 H 0.147 V 0 H 0.079 v -0.72 h 0.077 l 0.416,0.629 H 0.574 V -0.72 H 0.642 V 0 H 0.563 Z" /></g><g
     id="g54"
     transform="matrix(12.166,0,0,12.166,282.669,312.119)"><path
       id="path52"
       style="fill:#27476e;fill-rule:nonzero;fill-opacity:1"
       d="M 0.592,-0.511 C 0.578,-0.572 0.552,-0.616 0.514,-0.642 0.476,-0.668 0.426,-0.681 0.365,-0.681 c -0.043,0 -0.081,0.009 -0.112,0.026 -0.031,0.017 -0.057,0.041 -0.077,0.07 -0.021,0.029 -0.036,0.063 -0.045,0.101 -0.01,0.039 -0.015,0.079 -0.015,0.122 0,0.04 0.004,0.079 0.013,0.118 0.008,0.039 0.022,0.073 0.041,0.103 0.019,0.031 0.045,0.055 0.078,0.074 0.033,0.019 0.074,0.028 0.123,0.028 0.031,0 0.059,-0.005 0.084,-0.015 0.025,-0.01 0.047,-0.024 0.067,-0.042 0.019,-0.017 0.035,-0.038 0.048,-0.062 0.013,-0.024 0.022,-0.05 0.029,-0.079 H 0.67 C 0.662,-0.202 0.65,-0.169 0.635,-0.139 0.62,-0.108 0.6,-0.08 0.575,-0.057 0.55,-0.034 0.519,-0.015 0.484,-0.002 0.448,0.012 0.406,0.019 0.358,0.019 0.303,0.019 0.255,0.009 0.216,-0.012 0.177,-0.032 0.145,-0.059 0.12,-0.094 0.095,-0.129 0.076,-0.169 0.065,-0.215 0.054,-0.26 0.048,-0.309 0.048,-0.36 c 0,-0.069 0.008,-0.127 0.026,-0.175 0.017,-0.048 0.04,-0.087 0.07,-0.118 0.03,-0.03 0.065,-0.052 0.106,-0.066 0.041,-0.013 0.085,-0.02 0.133,-0.02 0.037,0 0.071,0.005 0.103,0.014 0.031,0.01 0.059,0.025 0.084,0.044 0.024,0.019 0.044,0.043 0.06,0.071 0.015,0.029 0.026,0.062 0.032,0.099 z" /></g><g
     id="g58"
     transform="matrix(12.166,0,0,12.166,291.453,312.119)"><rect
       id="rect56"
       style="fill:#27476e;fill-rule:nonzero;fill-opacity:1"
       height="0.72000003"
       width="0.068000004"
       y="-0.72000003"
       x="0.105" /></g><g
     id="g62"
     transform="matrix(12.166,0,0,12.166,294.835,312.119)"><path
       id="path60"
       style="fill:#27476e;fill-rule:nonzero;fill-opacity:1"
       d="M 0.015,0 0.298,-0.72 H 0.375 L 0.651,0 H 0.581 L 0.498,-0.226 H 0.17 L 0.085,0 Z M 0.193,-0.284 H 0.475 L 0.334,-0.662 Z" /></g><g
     id="g66"
     transform="matrix(12.166,0,0,12.166,306.332,312.119)"><path
       id="path64"
       style="fill:#27476e;fill-rule:nonzero;fill-opacity:1"
       d="M 0.081,0 V -0.72 H 0.56 v 0.058 H 0.149 v 0.26 H 0.52 v 0.058 H 0.149 v 0.286 H 0.57 V 0 Z" /></g><g
     id="g70"
     transform="matrix(12.166,0,0,12.166,313.765,312.119)"><path
       id="path68"
       style="fill:#27476e;fill-rule:nonzero;fill-opacity:1"
       d="m 0.081,0 v -0.72 h 0.068 v 0.662 H 0.535 V 0 Z" /></g><g
     id="g74"
     transform="matrix(12.166,0,0,12.166,320.53,312.119)"><path
       id="path72"
       style="fill:#27476e;fill-rule:nonzero;fill-opacity:1"
       d="M 0.081,0 V -0.72 H 0.56 v 0.058 H 0.149 v 0.26 H 0.52 v 0.058 H 0.149 v 0.286 H 0.57 V 0 Z" /></g><g
     id="g78"
     transform="matrix(12.166,0,0,12.166,327.963,312.119)"><path
       id="path76"
       style="fill:#27476e;fill-rule:nonzero;fill-opacity:1"
       d="M 0.592,-0.511 C 0.578,-0.572 0.552,-0.616 0.514,-0.642 0.476,-0.668 0.426,-0.681 0.365,-0.681 c -0.043,0 -0.081,0.009 -0.112,0.026 -0.031,0.017 -0.057,0.041 -0.077,0.07 -0.021,0.029 -0.036,0.063 -0.045,0.101 -0.01,0.039 -0.015,0.079 -0.015,0.122 0,0.04 0.004,0.079 0.013,0.118 0.008,0.039 0.022,0.073 0.041,0.103 0.019,0.031 0.045,0.055 0.078,0.074 0.033,0.019 0.074,0.028 0.123,0.028 0.031,0 0.059,-0.005 0.084,-0.015 0.025,-0.01 0.047,-0.024 0.067,-0.042 0.019,-0.017 0.035,-0.038 0.048,-0.062 0.013,-0.024 0.022,-0.05 0.029,-0.079 H 0.67 C 0.662,-0.202 0.65,-0.169 0.635,-0.139 0.62,-0.108 0.6,-0.08 0.575,-0.057 0.55,-0.034 0.519,-0.015 0.484,-0.002 0.448,0.012 0.406,0.019 0.358,0.019 0.303,0.019 0.255,0.009 0.216,-0.012 0.177,-0.032 0.145,-0.059 0.12,-0.094 0.095,-0.129 0.076,-0.169 0.065,-0.215 0.054,-0.26 0.048,-0.309 0.048,-0.36 c 0,-0.069 0.008,-0.127 0.026,-0.175 0.017,-0.048 0.04,-0.087 0.07,-0.118 0.03,-0.03 0.065,-0.052 0.106,-0.066 0.041,-0.013 0.085,-0.02 0.133,-0.02 0.037,0 0.071,0.005 0.103,0.014 0.031,0.01 0.059,0.025 0.084,0.044 0.024,0.019 0.044,0.043 0.06,0.071 0.015,0.029 0.026,0.062 0.032,0.099 z" /></g><g
     id="g82"
     transform="matrix(12.166,0,0,12.166,336.747,312.119)"><path
       id="path80"
       style="fill:#27476e;fill-rule:nonzero;fill-opacity:1"
       d="M 0.016,-0.72 H 0.54 v 0.058 H 0.312 V 0 H 0.244 V -0.662 H 0.016 Z" /></g><g
     id="g86"
     transform="matrix(12.166,0,0,12.166,343.511,312.119)"><path
       id="path84"
       style="fill:#27476e;fill-rule:nonzero;fill-opacity:1"
       d="m 0.36,-0.385 c 0.025,0 0.049,-0.003 0.071,-0.008 0.021,-0.005 0.04,-0.014 0.056,-0.026 0.016,-0.011 0.029,-0.026 0.038,-0.044 0.009,-0.018 0.014,-0.04 0.014,-0.065 0,-0.027 -0.005,-0.049 -0.014,-0.066 C 0.515,-0.611 0.502,-0.625 0.486,-0.635 0.469,-0.645 0.451,-0.652 0.43,-0.656 0.409,-0.66 0.387,-0.662 0.364,-0.662 H 0.148 v 0.277 z M 0.148,-0.327 V 0 H 0.08 v -0.72 h 0.282 c 0.079,0 0.14,0.015 0.182,0.044 0.042,0.03 0.063,0.078 0.063,0.145 0,0.045 -0.009,0.081 -0.027,0.108 -0.019,0.027 -0.049,0.049 -0.09,0.068 0.021,0.007 0.038,0.018 0.05,0.032 0.012,0.014 0.021,0.03 0.027,0.048 0.006,0.018 0.01,0.037 0.012,0.057 0.001,0.02 0.002,0.039 0.003,0.058 0.001,0.027 0.002,0.05 0.004,0.068 0.001,0.018 0.003,0.033 0.006,0.044 0.002,0.011 0.005,0.02 0.008,0.026 0.003,0.007 0.007,0.012 0.012,0.015 V 0 H 0.537 C 0.53,-0.012 0.525,-0.029 0.522,-0.05 0.519,-0.071 0.516,-0.094 0.515,-0.117 0.513,-0.14 0.511,-0.163 0.511,-0.185 0.51,-0.207 0.508,-0.225 0.505,-0.239 0.501,-0.258 0.495,-0.274 0.486,-0.286 0.476,-0.297 0.466,-0.306 0.453,-0.312 0.44,-0.318 0.426,-0.322 0.411,-0.324 0.395,-0.326 0.379,-0.327 0.362,-0.327 Z" /></g><g
     id="g90"
     transform="matrix(12.166,0,0,12.166,351.626,312.119)"><path
       id="path88"
       style="fill:#27476e;fill-rule:nonzero;fill-opacity:1"
       d="m 0.053,-0.359 c 0,-0.053 0.007,-0.102 0.022,-0.148 0.014,-0.046 0.035,-0.086 0.063,-0.121 0.028,-0.034 0.063,-0.061 0.104,-0.081 0.041,-0.02 0.089,-0.03 0.143,-0.03 0.056,0 0.105,0.01 0.148,0.029 0.042,0.02 0.077,0.047 0.106,0.081 0.028,0.035 0.049,0.075 0.064,0.121 0.014,0.047 0.021,0.096 0.021,0.149 0,0.052 -0.007,0.101 -0.021,0.146 -0.015,0.046 -0.036,0.086 -0.064,0.12 -0.028,0.035 -0.063,0.062 -0.105,0.082 -0.042,0.02 -0.091,0.03 -0.146,0.03 -0.055,0 -0.104,-0.01 -0.146,-0.03 C 0.2,-0.031 0.165,-0.058 0.137,-0.093 0.109,-0.127 0.088,-0.167 0.074,-0.213 0.06,-0.258 0.053,-0.307 0.053,-0.359 Z m 0.336,0.32 c 0.047,0 0.087,-0.009 0.121,-0.027 0.033,-0.017 0.061,-0.041 0.083,-0.07 0.021,-0.029 0.037,-0.063 0.048,-0.102 0.01,-0.039 0.015,-0.079 0.015,-0.121 0,-0.05 -0.006,-0.095 -0.018,-0.135 C 0.625,-0.533 0.607,-0.567 0.584,-0.595 0.561,-0.623 0.532,-0.644 0.499,-0.659 0.466,-0.674 0.428,-0.681 0.387,-0.681 c -0.046,0 -0.086,0.009 -0.119,0.027 -0.034,0.018 -0.062,0.042 -0.083,0.071 -0.022,0.03 -0.038,0.064 -0.048,0.103 -0.011,0.039 -0.016,0.079 -0.016,0.121 0,0.043 0.005,0.083 0.016,0.122 0.01,0.039 0.026,0.073 0.048,0.102 0.021,0.029 0.049,0.053 0.083,0.07 0.033,0.017 0.074,0.026 0.121,0.026 z M 0.332,-0.776 0.443,-0.915 H 0.52 l -0.137,0.139 z" /></g><g
     id="g94"
     transform="matrix(12.166,0,0,12.166,361.091,312.119)"><path
       id="path92"
       style="fill:#27476e;fill-rule:nonzero;fill-opacity:1"
       d="M 0.149,-0.628 H 0.147 V 0 H 0.079 v -0.72 h 0.077 l 0.416,0.629 H 0.574 V -0.72 H 0.642 V 0 H 0.563 Z" /></g><g
     id="g98"
     transform="matrix(12.166,0,0,12.166,369.875,312.119)"><rect
       id="rect96"
       style="fill:#27476e;fill-rule:nonzero;fill-opacity:1"
       height="0.72000003"
       width="0.068000004"
       y="-0.72000003"
       x="0.105" /></g><g
     id="g102"
     transform="matrix(12.166,0,0,12.166,373.257,312.119)"><path
       id="path100"
       style="fill:#27476e;fill-rule:nonzero;fill-opacity:1"
       d="M 0.592,-0.511 C 0.578,-0.572 0.552,-0.616 0.514,-0.642 0.476,-0.668 0.426,-0.681 0.365,-0.681 c -0.043,0 -0.081,0.009 -0.112,0.026 -0.031,0.017 -0.057,0.041 -0.077,0.07 -0.021,0.029 -0.036,0.063 -0.045,0.101 -0.01,0.039 -0.015,0.079 -0.015,0.122 0,0.04 0.004,0.079 0.013,0.118 0.008,0.039 0.022,0.073 0.041,0.103 0.019,0.031 0.045,0.055 0.078,0.074 0.033,0.019 0.074,0.028 0.123,0.028 0.031,0 0.059,-0.005 0.084,-0.015 0.025,-0.01 0.047,-0.024 0.067,-0.042 0.019,-0.017 0.035,-0.038 0.048,-0.062 0.013,-0.024 0.022,-0.05 0.029,-0.079 H 0.67 C 0.662,-0.202 0.65,-0.169 0.635,-0.139 0.62,-0.108 0.6,-0.08 0.575,-0.057 0.55,-0.034 0.519,-0.015 0.484,-0.002 0.448,0.012 0.406,0.019 0.358,0.019 0.303,0.019 0.255,0.009 0.216,-0.012 0.177,-0.032 0.145,-0.059 0.12,-0.094 0.095,-0.129 0.076,-0.169 0.065,-0.215 0.054,-0.26 0.048,-0.309 0.048,-0.36 c 0,-0.069 0.008,-0.127 0.026,-0.175 0.017,-0.048 0.04,-0.087 0.07,-0.118 0.03,-0.03 0.065,-0.052 0.106,-0.066 0.041,-0.013 0.085,-0.02 0.133,-0.02 0.037,0 0.071,0.005 0.103,0.014 0.031,0.01 0.059,0.025 0.084,0.044 0.024,0.019 0.044,0.043 0.06,0.071 0.015,0.029 0.026,0.062 0.032,0.099 z" /></g><g
     id="g106"
     transform="matrix(12.166,0,0,12.166,382.041,312.119)"><path
       id="path104"
       style="fill:#27476e;fill-rule:nonzero;fill-opacity:1"
       d="M 0.015,0 0.298,-0.72 H 0.375 L 0.651,0 H 0.581 L 0.498,-0.226 H 0.17 L 0.085,0 Z M 0.193,-0.284 H 0.475 L 0.334,-0.662 Z" /></g></g></g>
</svg>